<?xml version="1.0" encoding="utf-8"?>
<!-- Generator: Adobe Illustrator 19.2.1, SVG Export Plug-In . SVG Version: 6.00 Build 0)  -->
<svg version="1.1" 
     focusable="false" 
     xmlns="http://www.w3.org/2000/svg" 
     xmlns:xlink="http://www.w3.org/1999/xlink" 
	 viewBox="0 0 576 512" 
	 style="enable-background:new 0 0 576 512;" 
	 xml:space="preserve">

<path fill="#FAFAFA" d="M245.8,478.2c-54.2-30.8-164.8-44.9-221.3-47.8C11,429.7,0,419.4,0,405.9c0.1-87.2,0.5-261.6,0.6-348.7
	c0-13.5,11-24.8,24.5-24.5c56.4,1,140.9,5.1,220.9,46.1c21.2,10.8,24.2,13.8,24.2,27.4v353.6C270.2,473.3,258.5,485.4,245.8,478.2z
	 M234.2,159.9c1.7-0.8,2.5-2.9,1.7-4.7c-8.7-18.4-38.8-34.2-89.5-47C102.3,97.1,56.2,91.8,30.1,90.6c-1.9-0.1-3.6,1.4-3.7,3.3
	c-0.1,1.9,1.4,3.6,3.3,3.7c27.8,1.3,74.1,7.2,114.9,17.5c47.1,11.9,77.3,27.3,84.9,43.2c0.6,1.3,1.9,2,3.2,2
	C233.2,160.3,233.7,160.2,234.2,159.9z M234.2,439.9c1.7-0.8,2.5-2.9,1.7-4.7c-8.7-18.4-38.8-34.2-89.5-47
	c-44.1-11.2-90.2-16.5-116.3-17.7c-1.9-0.1-3.6,1.4-3.7,3.3c-0.1,1.9,1.4,3.6,3.3,3.7c27.8,1.3,74.1,7.2,114.9,17.5
	c47.1,11.9,77.3,27.3,84.9,43.2c0.6,1.3,1.9,2,3.2,2C233.2,440.3,233.7,440.2,234.2,439.9z M234.2,369.9c1.7-0.8,2.5-2.9,1.7-4.7
	c-8.7-18.4-38.8-34.2-89.5-47c-44.1-11.2-90.2-16.5-116.3-17.7c-1.9-0.1-3.6,1.4-3.7,3.3c-0.1,1.9,1.4,3.6,3.3,3.7
	c27.8,1.3,74.1,7.2,114.9,17.5c47.1,11.9,77.3,27.3,84.9,43.2c0.6,1.3,1.9,2,3.2,2C233.2,370.3,233.7,370.2,234.2,369.9z
	 M234.2,299.9c1.7-0.8,2.5-2.9,1.7-4.7c-8.7-18.4-38.8-34.2-89.5-47c-44.1-11.2-90.2-16.5-116.3-17.7c-1.9-0.1-3.6,1.4-3.7,3.3
	c-0.1,1.9,1.4,3.6,3.3,3.7c27.8,1.3,74.1,7.2,114.9,17.5c47.1,11.9,77.3,27.3,84.9,43.2c0.6,1.3,1.9,2,3.2,2
	C233.2,300.3,233.7,300.2,234.2,299.9z M234.2,229.9c1.7-0.8,2.5-2.9,1.7-4.7c-8.7-18.4-38.8-34.2-89.5-47
	c-44.1-11.2-90.2-16.5-116.3-17.7c-1.9-0.1-3.6,1.4-3.7,3.3c-0.1,1.9,1.4,3.6,3.3,3.7c27.8,1.3,74.1,7.2,114.9,17.5
	c47.1,11.9,77.3,27.3,84.9,43.2c0.6,1.3,1.9,2,3.2,2C233.2,230.3,233.7,230.2,234.2,229.9z M305.8,459.7V106.1
	c0-13.5,3-16.5,24.2-27.4c80.1-41,164.5-45.1,220.9-46.1c13.5-0.2,24.5,11,24.5,24.5c0.1,87.2,0.5,261.6,0.6,348.7
	c0,13.5-11,23.8-24.5,24.5c-56.5,2.9-167.1,16.9-221.3,47.8C317.5,485.4,305.8,473.3,305.8,459.7z M344.2,158.3
	c7.6-15.9,37.7-31.3,84.9-43.2c40.8-10.3,87.1-16.2,114.9-17.5c1.9-0.1,3.4-1.7,3.3-3.7c-0.1-1.9-1.8-3.4-3.7-3.3
	c-26.1,1.2-72.2,6.6-116.3,17.7c-50.6,12.8-80.7,28.6-89.5,47c-0.8,1.7-0.1,3.8,1.7,4.7c0.5,0.2,1,0.3,1.5,0.3
	C342.3,160.3,343.6,159.5,344.2,158.3z M344.2,438.3c7.6-15.9,37.7-31.3,84.9-43.2c40.8-10.3,87.1-16.2,114.9-17.5
	c1.9-0.1,3.4-1.7,3.3-3.7c-0.1-1.9-1.8-3.4-3.7-3.3c-26.1,1.2-72.2,6.6-116.3,17.7c-50.6,12.8-80.7,28.6-89.5,47
	c-0.8,1.7-0.1,3.8,1.7,4.7c0.5,0.2,1,0.3,1.5,0.3C342.3,440.3,343.6,439.6,344.2,438.3z M344.2,368.3c7.6-15.9,37.7-31.3,84.9-43.2
	c40.8-10.3,87.1-16.2,114.9-17.5c1.9-0.1,3.4-1.7,3.3-3.7c-0.1-1.9-1.8-3.4-3.7-3.3c-26.1,1.2-72.2,6.6-116.3,17.7
	c-50.6,12.8-80.7,28.6-89.5,47c-0.8,1.7-0.1,3.8,1.7,4.7c0.5,0.2,1,0.3,1.5,0.3C342.3,370.3,343.6,369.5,344.2,368.3z M344.2,298.3
	c7.6-15.9,37.7-31.3,84.9-43.2c40.8-10.3,87.1-16.2,114.9-17.5c1.9-0.1,3.4-1.7,3.3-3.7c-0.1-1.9-1.8-3.4-3.7-3.3
	c-26.1,1.2-72.2,6.6-116.3,17.7c-50.6,12.8-80.7,28.6-89.5,47c-0.8,1.7-0.1,3.8,1.7,4.7c0.5,0.2,1,0.3,1.5,0.3
	C342.3,300.3,343.6,299.5,344.2,298.3z M344.2,228.3c7.6-15.9,37.7-31.3,84.9-43.2c40.8-10.3,87.1-16.2,114.9-17.5
	c1.9-0.1,3.4-1.7,3.3-3.7c-0.1-1.9-1.8-3.4-3.7-3.3c-26.1,1.2-72.2,6.6-116.3,17.7c-50.6,12.8-80.7,28.6-89.5,47
	c-0.8,1.7-0.1,3.8,1.7,4.7c0.5,0.2,1,0.3,1.5,0.3C342.3,230.3,343.6,229.5,344.2,228.3z"/>
</svg>
