<?xml version="1.0" encoding="utf-8"?>
<!-- Generator: Adobe Illustrator 19.2.1, SVG Export Plug-In . SVG Version: 6.00 Build 0)  -->
<svg version="1.1" id="Layer_1" focusable="false" xmlns="http://www.w3.org/2000/svg" xmlns:xlink="http://www.w3.org/1999/xlink"
	 x="0px" y="0px" viewBox="0 0 576 512" style="enable-background:new 0 0 576 512;" xml:space="preserve">
<style type="text/css">
	.st0{fill:#FAFAFA;}
</style>
<path class="st0" d="M245.8,478.2C191.6,447.4,81,427.3,24.5,424.4C11,423.7,0,413.4,0,399.9c0.1-87.2,0.5-255.6,0.6-342.7
	c0-13.5,11-24.8,24.5-24.5c56.4,1,140.9,5.1,220.9,46.1c21.2,10.8,24.2,13.8,24.2,27.4v353.6C270.2,473.3,258.5,485.4,245.8,478.2z
	 M305.8,459.7V106.1c0-13.5,3-16.5,24.2-27.4c80.1-41,164.5-45.1,220.9-46.1c13.5-0.2,24.5,11,24.5,24.5
	c0.1,87.2,0.5,256.6,0.6,343.7c0,13.5-11,23.8-24.5,24.5c-56.5,2.9-167.1,21.9-221.3,52.8C317.5,485.4,305.8,473.3,305.8,459.7z
	 M364.1,190.5c39.1-34.8,93-49.9,160.2-44.6c11,0.9,20.6-7.4,21.5-18.4c0.9-11-7.4-20.6-18.4-21.5c-78.5-6.1-142.4,12.3-189.9,54.7
	c-8.2,7.3-9,20-1.6,28.2c4,4.4,9.4,6.7,14.9,6.7C355.5,195.6,360.3,193.9,364.1,190.5z M364.9,295.9c16.1-16.1,37.9-29.5,62.9-38.7
	c29.4-10.8,62.1-15.5,97.2-14.1c11,0.5,20.3-8.1,20.8-19.2c0.4-11-8.1-20.3-19.2-20.8c-40.4-1.6-78.3,3.9-112.6,16.5
	c-30.4,11.2-57.2,27.7-77.4,48c-7.8,7.8-7.8,20.5,0,28.3c3.9,3.9,9,5.9,14.1,5.9S361,299.8,364.9,295.9z M363.7,402.9
	c16.2-13.7,64.7-46.1,163.1-51c11-0.5,19.5-9.9,19-21c-0.5-11-9.9-19.6-21-19c-106.7,5.2-162.9,40.1-187,60.3
	c-8.4,7.1-9.5,19.7-2.4,28.2c4,4.7,9.6,7.1,15.3,7.1C355.3,407.6,359.9,406.1,363.7,402.9z M236.7,188.9c7.3-8.2,6.6-20.9-1.6-28.2
	C187.6,118.3,123.7,99.9,45.2,106c-11,0.9-19.2,10.5-18.4,21.5c0.9,11,10.5,19.2,21.5,18.4c67.2-5.2,121.1,9.8,160.2,44.6
	c3.8,3.4,8.6,5.1,13.3,5.1C227.3,195.6,232.8,193.3,236.7,188.9z M236,295.9c7.8-7.8,7.8-20.5,0-28.3c-20.2-20.2-47-36.8-77.4-48
	C124.3,207,86.4,201.4,46,203.1c-11,0.4-19.6,9.8-19.2,20.8c0.4,11,9.8,19.6,20.8,19.2c35.1-1.4,67.8,3.3,97.2,14.1
	c25,9.2,46.7,22.6,62.9,38.7c3.9,3.9,9,5.9,14.1,5.9C226.9,301.7,232.1,299.8,236,295.9z M237.1,400.5c7.1-8.4,6.1-21.1-2.4-28.2
	c-24-20.3-80.3-55.1-187-60.3c-11-0.5-20.4,8-21,19c-0.5,11,8,20.4,19,21c98.5,4.8,146.9,37.2,163.1,51c3.8,3.2,8.3,4.7,12.9,4.7
	C227.5,407.6,233.1,405.2,237.1,400.5z"/>
</svg>
