<?xml version="1.0" encoding="utf-8"?>
<!-- Generator: Adobe Illustrator 19.2.1, SVG Export Plug-In . SVG Version: 6.00 Build 0)  -->
<svg version="1.1" focusable="false" xmlns="http://www.w3.org/2000/svg" xmlns:xlink="http://www.w3.org/1999/xlink"
	 x="0px" y="0px" viewBox="0 0 448 512" style="enable-background:new 0 0 448 512;" xml:space="preserve">
<path fill="#A6A6A6" d="M312,278v71.6c0,28.1-69.9,50.9-156,50.9S0,377.7,0,349.6V278c33.5,23.1,94.9,33.8,156,33.8
	S278.5,301.1,312,278z M312,389.4v71.6c0,28.1-69.9,50.9-156,50.9S0,489.1,0,461.1v-71.6c33.5,23.1,94.9,33.8,156,33.8
	S278.5,412.5,312,389.4z M260.8,267.5c-66.5,0-122-48-133.5-111.2C54.8,160.7,0,181.5,0,206.4v31.8c0,28.1,69.9,50.9,156,50.9
	c56.7,0,106.3-9.9,133.6-24.7C280.2,266.5,270.6,267.5,260.8,267.5z M196.6,157.2c10.2,25.5,35.1,43.6,64.2,43.6
	c15.1,0,29-4.9,40.4-13.1C283.2,172.8,244.4,161.4,196.6,157.2z"/>
<path fill="#FAFAFA" d="M441.8,274.8L381,214c-2.7-2.7-6.5-4.3-10.4-4.3h-9.9c16.8-21.5,26.8-48.6,26.8-78C387.5,61.7,330.8,5,260.8,5
	S134,61.7,134,131.8s56.7,126.8,126.8,126.8c29.4,0,56.5-10,78-26.8v9.9c0,3.9,1.5,7.6,4.3,10.4l60.8,60.8c5.7,5.7,15,5.7,20.7,0
	l17.2-17.2C447.4,289.8,447.4,280.5,441.8,274.8z M260.8,209.8c-43.1,0-78-34.9-78-78c0-43.1,34.9-78,78-78c43.1,0,78,34.9,78,78
	C338.8,174.8,303.9,209.8,260.8,209.8z"/>
</svg>
