<svg id="5c5d5f7c-1932-47e7-943b-fc190dc4706e" data-name="Layer 1" xmlns="http://www.w3.org/2000/svg" viewBox="0 0 640 512"><title>project-diagram-solid2</title><path d="M577.29,386.58a62.6,62.6,0,0,0-20,3.27L521.06,336.7a114,114,0,0,0-2.23-169.12l27.09-35.51a62.72,62.72,0,1,0-12.72-9.7l-27.09,35.5a114,114,0,0,0-158,32.76l-122.8-51.86A114.66,114.66,0,0,0,227,98.44l56-11.78A62.85,62.85,0,1,0,279.71,71l-56,11.78a114,114,0,1,0-14.33,93.76l122.8,51.86a114.68,114.68,0,0,0-1.16,43.5l-162.64,39a62.72,62.72,0,1,0,4.09,22.29,63.38,63.38,0,0,0-.36-6.73l162.63-39a114.08,114.08,0,0,0,32.2,50.18L323,393.51a62.81,62.81,0,1,0,12.57,9.89l43.9-55.88A114.15,114.15,0,0,0,493,355.88L529.24,409A62.7,62.7,0,1,0,577.29,386.58Z" transform="translate(0 0)" style="fill:#b5b7bb"/></svg>