<?xml version="1.0" encoding="utf-8"?>
<!-- Generator: Adobe Illustrator 19.2.1, SVG Export Plug-In . SVG Version: 6.00 Build 0)  -->
<svg version="1.1" id="Layer_1" focusable="false" xmlns="http://www.w3.org/2000/svg" xmlns:xlink="http://www.w3.org/1999/xlink"
	 x="0px" y="0px" viewBox="0 0 512 512" style="enable-background:new 0 0 512 512;" xml:space="preserve">
<style type="text/css">
	.st0{fill:#FAFAFA;}
</style>
<path class="st0" d="M411.4,208.8c6-6.3,10.1-14.4,11.5-23.6c2.7-18.2-6.3-35.4-21.3-44c0.4-23.3-14.8-43.5-36.1-48.5
	c-5.2-15.9-19.3-28-36.9-29.8c-4.5-0.5-8.8-0.2-13,0.6c2.2-22.9-13.9-43.8-36.9-47.2c-11.6-1.7-22.8,1.3-31.6,7.6
	c-6.4-11.2-17.7-19.4-31.4-21.4c-23.8-3.5-45.9,12.9-49.4,36.7c-0.2,1-0.3,2.1-0.3,3.1c-22.2-5.1-45.1,5.1-54.3,25.5
	c-3.2,7-4.4,14.5-3.8,21.7c-17.3-0.8-34.1,8.8-41.7,25.5c-9.1,20.2-1.6,43.6,16.8,55c-4.1,10.9-3.6,22.6,0.7,33.1
	c-11.1,3.7-20.8,11.8-26,23.3c-9.9,21.9-0.2,47.6,21.6,57.6c8.7,3.9,17.9,4.8,26.6,3c-2.3,4.3-4,9.1-4.7,14.3
	c-3.5,23.8,12.9,45.9,36.7,49.4c20.9,3.1,40.6-9.3,47.3-28.5c22.1,2.7,42.6-11.8,47.6-33.2c2.5,23.7,5.1,51.1,4.8,71.2
	c-0.4,25.9,0,26.8,1.1,74.4c1.1,47.6-23.3,54.1-72.4,67.6c-26.4,7.3,18.8-0.5,50.4,3.7c23.5,3.1,22.4-0.6,41.6-1.6
	c7.4-0.4,22.6,0.8,33.7,0.5c10.1-0.3,22.7-0.9,31-2c12.6-1.7,29.6,4.1,27.6,1.9c-10.3-7.3-24.3-11.4-38.9-16
	c-5.5-1.7-12.8-8.1-14.8-12.9c-11.5-26.6-11.4-39.4-12.8-90.5c-0.8-31.7-5.5-68-7.3-94.8c3.6-1.9,6.8-4.2,9.7-7
	c6.6,9.5,17,16.3,29.3,18.1c18.8,2.8,36.6-7,45-23c4.5,2.6,9.6,4.4,15,5.2c23.8,3.5,45.9-12.9,49.4-36.7
	C427.1,232.3,421.6,218.2,411.4,208.8z"/>
</svg>
